<svg width="52" height="52" viewBox="0 0 52 52" fill="none" xmlns="http://www.w3.org/2000/svg">
<circle cx="26" cy="26" r="26" fill="#F9E6F9"/>
<path d="M21 31.5C21.3333 32.1667 22.9 33.5 26.5 33.5C30.1 33.5 31.3333 32.1667 31.5 31.5" stroke="#D657D9" stroke-width="2"/>
<path d="M20.5 19V24" stroke="#D657D9" stroke-width="2"/>
<path d="M32.5 19V24" stroke="#D657D9" stroke-width="2"/>
<path d="M26.5 20.5V28H23" stroke="#D657D9" stroke-width="2"/>
<path d="M20 14H16C14.8954 14 14 14.8954 14 16V20" stroke="#D657D9" stroke-width="2"/>
<path d="M32 38L36 38C37.1046 38 38 37.1046 38 36L38 32" stroke="#D657D9" stroke-width="2"/>
<path d="M38 20L38 16C38 14.8954 37.1046 14 36 14L32 14" stroke="#D657D9" stroke-width="2"/>
<path d="M14 32L14 36C14 37.1046 14.8954 38 16 38L20 38" stroke="#D657D9" stroke-width="2"/>
</svg>
