<svg width="26" height="27" viewBox="0 0 26 27" fill="none" xmlns="http://www.w3.org/2000/svg">
<path d="M21.4853 4.9107L20.955 5.44103L20.955 5.44103L21.4853 4.9107ZM21.4853 21.8813L20.9549 21.3509H20.9549L21.4853 21.8813ZM4.51472 21.8813L5.04505 21.3509L5.04505 21.3509L4.51472 21.8813ZM4.51471 4.91071L5.04504 5.44104L4.51471 4.91071ZM9.8295 4.97033L9.56525 4.26842L9.8295 4.97033ZM9.28509 5.19604L8.97519 4.51306L9.28509 5.19604ZM4.80004 9.68109L4.11706 9.37118L4.80004 9.68109ZM4.80005 17.1109L4.11707 17.4208L4.80005 17.1109ZM9.8295 21.8217L9.56525 22.5236L9.8295 21.8217ZM16.7149 21.5959L17.0248 22.2789L16.7149 21.5959ZM21.4257 10.2255L22.1276 9.96125L21.4257 10.2255ZM16.7149 5.19604L16.405 5.87902L16.7149 5.19604ZM9.28507 21.5959L8.97516 22.2789L9.28507 21.5959ZM21.4257 16.5665L20.7238 16.3022L21.4257 16.5665ZM21.1999 9.6811L20.517 9.991L21.1999 9.6811ZM21.1999 17.1109L21.8829 17.4208L21.1999 17.1109ZM13 0.645996C11.4812 0.645996 10.25 1.87721 10.25 3.396H11.75C11.75 2.70564 12.3096 2.146 13 2.146V0.645996ZM15.75 3.396C15.75 1.87721 14.5188 0.645996 13 0.645996V2.146C13.6903 2.146 14.25 2.70564 14.25 3.396H15.75ZM17.0248 4.51306C16.8314 4.42531 16.6346 4.34368 16.4347 4.26842L15.9062 5.67223C16.0752 5.73584 16.2415 5.80483 16.405 5.87902L17.0248 4.51306ZM22.0156 4.38037C20.9417 3.30643 19.2005 3.30643 18.1265 4.38037L19.1872 5.44103C19.6753 4.95288 20.4668 4.95288 20.955 5.44103L22.0156 4.38037ZM22.0156 8.26946C23.0896 7.19552 23.0896 5.45432 22.0156 4.38037L20.955 5.44103C21.4431 5.92919 21.4431 6.72065 20.955 7.2088L22.0156 8.26946ZM22.1276 9.96125C22.0523 9.76134 21.9707 9.56457 21.8829 9.37119L20.517 9.991C20.5912 10.1545 20.6601 10.3208 20.7238 10.4897L22.1276 9.96125ZM25.75 13.396C25.75 11.8772 24.5188 10.646 23 10.646V12.146C23.6904 12.146 24.25 12.7056 24.25 13.396H25.75ZM23 16.146C24.5188 16.146 25.75 14.9148 25.75 13.396H24.25C24.25 14.0864 23.6904 14.646 23 14.646V16.146ZM21.8829 17.4208C21.9707 17.2274 22.0523 17.0307 22.1276 16.8307L20.7238 16.3022C20.6601 16.4712 20.5911 16.6375 20.517 16.801L21.8829 17.4208ZM20.9549 19.5832C21.4431 20.0713 21.4431 20.8628 20.9549 21.3509L22.0156 22.4116C23.0895 21.3377 23.0895 19.5965 22.0156 18.5225L20.9549 19.5832ZM20.9549 21.3509C20.4668 21.8391 19.6753 21.8391 19.1872 21.3509L18.1265 22.4116C19.2005 23.4855 20.9417 23.4855 22.0156 22.4116L20.9549 21.3509ZM16.4347 22.5236C16.6346 22.4483 16.8314 22.3667 17.0248 22.2789L16.405 20.913C16.2415 20.9872 16.0752 21.0562 15.9062 21.1198L16.4347 22.5236ZM13 26.146C14.5188 26.146 15.75 24.9148 15.75 23.396H14.25C14.25 24.0864 13.6903 24.646 13 24.646V26.146ZM10.25 23.396C10.25 24.9148 11.4812 26.146 13 26.146V24.646C12.3096 24.646 11.75 24.0864 11.75 23.396H10.25ZM8.97516 22.2789C9.16855 22.3667 9.36533 22.4483 9.56525 22.5236L10.0938 21.1198C9.9248 21.0562 9.75847 20.9872 9.59498 20.913L8.97516 22.2789ZM3.98439 22.4116C5.05833 23.4855 6.79953 23.4855 7.87348 22.4116L6.81282 21.3509C6.32466 21.8391 5.5332 21.8391 5.04505 21.3509L3.98439 22.4116ZM3.98439 18.5225C2.91045 19.5965 2.91045 21.3377 3.98439 22.4116L5.04505 21.3509C4.55689 20.8628 4.55689 20.0713 5.04505 19.5832L3.98439 18.5225ZM3.87241 16.8307C3.94768 17.0306 4.02931 17.2274 4.11707 17.4208L5.48302 16.801C5.40883 16.6375 5.33983 16.4712 5.27623 16.3022L3.87241 16.8307ZM0.25 13.396C0.25 14.9148 1.48122 16.146 3 16.146V14.646C2.30964 14.646 1.75 14.0864 1.75 13.396H0.25ZM3 10.646C1.48122 10.646 0.25 11.8772 0.25 13.396H1.75C1.75 12.7056 2.30964 12.146 3 12.146V10.646ZM4.11706 9.37118C4.02931 9.56457 3.94768 9.76135 3.87242 9.96126L5.27623 10.4898C5.33983 10.3208 5.40883 10.1545 5.48302 9.991L4.11706 9.37118ZM5.04504 7.2088C4.55688 6.72065 4.55688 5.92919 5.04504 5.44104L3.98438 4.38038C2.91044 5.45432 2.91044 7.19552 3.98438 8.26946L5.04504 7.2088ZM5.04504 5.44104C5.53319 4.95288 6.32465 4.95288 6.8128 5.44104L7.87347 4.38038C6.79952 3.30644 5.05832 3.30643 3.98438 4.38038L5.04504 5.44104ZM9.56525 4.26842C9.36534 4.34368 9.16857 4.42531 8.97519 4.51306L9.595 5.87902C9.75849 5.80483 9.92481 5.73584 10.0938 5.67223L9.56525 4.26842ZM10.0938 5.67223C10.9984 5.33167 11.75 4.48046 11.75 3.396H10.25C10.25 3.74216 9.99953 4.10493 9.56525 4.26842L10.0938 5.67223ZM6.8128 5.44104C7.57996 6.20819 8.71399 6.27878 9.595 5.87902L8.97519 4.51306C8.55255 4.70484 8.11859 4.6255 7.87347 4.38038L6.8128 5.44104ZM5.48302 9.991C5.88278 9.10999 5.81219 7.97596 5.04504 7.2088L3.98438 8.26946C4.2295 8.51458 4.30884 8.94855 4.11706 9.37118L5.48302 9.991ZM3 12.146C4.08445 12.146 4.93567 11.3944 5.27623 10.4898L3.87242 9.96126C3.70892 10.3955 3.34616 10.646 3 10.646V12.146ZM5.27623 16.3022C4.93567 15.3976 4.08445 14.646 3 14.646V16.146C3.34616 16.146 3.70892 16.3965 3.87241 16.8307L5.27623 16.3022ZM5.04505 19.5832C5.81219 18.816 5.88279 17.682 5.48302 16.801L4.11707 17.4208C4.30884 17.8434 4.2295 18.2774 3.98439 18.5225L5.04505 19.5832ZM11.75 23.396C11.75 22.3115 10.9984 21.4603 10.0938 21.1198L9.56525 22.5236C9.99953 22.6871 10.25 23.0498 10.25 23.396H11.75ZM19.1872 21.3509C18.42 20.5838 17.286 20.5132 16.405 20.913L17.0248 22.2789C17.4474 22.0871 17.8814 22.1665 18.1265 22.4116L19.1872 21.3509ZM20.7238 10.4897C21.0643 11.3944 21.9155 12.146 23 12.146V10.646C22.6538 10.646 22.2911 10.3955 22.1276 9.96125L20.7238 10.4897ZM16.405 5.87902C17.286 6.27878 18.42 6.20819 19.1872 5.44103L18.1265 4.38037C17.8814 4.6255 17.4474 4.70484 17.0248 4.51306L16.405 5.87902ZM9.59498 20.913C8.71398 20.5132 7.57996 20.5838 6.81282 21.3509L7.87348 22.4116C8.11859 22.1665 8.55254 22.0871 8.97516 22.2789L9.59498 20.913ZM23 14.646C21.9155 14.646 21.0643 15.3976 20.7238 16.3022L22.1276 16.8307C22.2911 16.3965 22.6538 16.146 23 16.146V14.646ZM15.9062 21.1198C15.0016 21.4603 14.25 22.3115 14.25 23.396H15.75C15.75 23.0498 16.0005 22.6871 16.4347 22.5236L15.9062 21.1198ZM20.955 7.2088C20.1878 7.97596 20.1172 9.10999 20.517 9.991L21.8829 9.37119C21.6911 8.94855 21.7705 8.51458 22.0156 8.26946L20.955 7.2088ZM20.517 16.801C20.1172 17.682 20.1878 18.816 20.9549 19.5832L22.0156 18.5225C21.7705 18.2774 21.6911 17.8434 21.8829 17.4208L20.517 16.801ZM14.25 3.396C14.25 4.48046 15.0016 5.33167 15.9062 5.67223L16.4347 4.26842C16.0005 4.10493 15.75 3.74216 15.75 3.396H14.25Z" fill="currentColor"/>
<circle cx="13" cy="13.396" r="3.25" stroke="currentColor" stroke-width="1.5"/>
</svg>
