<svg width="166" height="19" viewBox="0 0 166 19" fill="none" xmlns="http://www.w3.org/2000/svg">
<path d="M69.9325 0.49707C64.5437 0.49707 60.7852 4.42723 60.7852 9.44672C60.7852 14.4643 64.5437 18.3964 69.9325 18.3964C75.3213 18.3964 79.0799 14.4662 79.0799 9.44672C79.0799 4.42723 75.3213 0.49707 69.9325 0.49707ZM70.0948 15.66C67.8956 15.7178 66.5843 13.6473 66.478 9.57728C66.3605 5.09687 67.5711 3.2894 69.7404 3.23158C71.9955 3.17189 73.2714 4.94391 73.387 9.39635C73.4952 13.4925 72.3219 15.6022 70.0948 15.66Z" fill="#252525"/>
<path d="M41.1998 0.793945H34.08C33.6846 0.793945 33.4365 1.04203 33.4365 1.43747V2.37757C33.4365 2.79726 33.5839 2.94649 33.9551 3.09385L34.4251 3.26732C34.9437 3.46504 35.1171 3.73737 35.1171 4.28017V14.6139C35.1171 15.1585 34.9437 15.429 34.4251 15.6267L33.9551 15.8002C33.5839 15.9475 33.4365 16.0968 33.4365 16.5165V17.4566C33.4365 17.852 33.6846 18.1001 34.08 18.1001H41.1998C41.5953 18.1001 41.8434 17.852 41.8434 17.4566V16.5165C41.8434 16.0968 41.696 15.9475 41.3248 15.8002L40.8548 15.6267C40.3362 15.429 40.1627 15.1567 40.1627 14.6139V4.28017C40.1627 3.7355 40.3362 3.46504 40.8548 3.26732L41.3248 3.09385C41.696 2.94649 41.8434 2.79726 41.8434 2.37757V1.43747C41.8415 1.04016 41.5953 0.793945 41.1998 0.793945Z" fill="#252525"/>
<path d="M60.2252 15.8244L59.9528 15.6771C59.2851 15.3059 58.7908 15.0335 58.1491 14.0207L55.825 10.2883C55.7018 10.0905 55.7746 9.94131 55.9984 9.89281C57.9514 9.37426 59.0631 8.23644 59.0631 6.20887C59.0631 2.37944 56.0768 0.793945 49.6994 0.793945L44.0326 0.842443C43.6372 0.892806 43.4395 1.11477 43.4395 1.48597V2.42607C43.4395 2.84576 43.5868 2.99498 43.9095 3.11809L44.4784 3.34006C44.9485 3.53778 45.1219 3.78587 45.1219 4.28017V14.6139C45.1219 15.1585 44.9485 15.429 44.4299 15.6267L43.9599 15.8002C43.5887 15.9475 43.4413 16.0968 43.4413 16.5164V17.4566C43.4413 17.852 43.6894 18.1001 44.0848 18.1001H51.2046C51.6243 18.1001 51.8482 17.852 51.8482 17.4566V16.5164C51.8482 16.0968 51.6989 15.9475 51.3296 15.8002L50.8596 15.6267C50.341 15.429 50.1675 15.1567 50.1675 14.6139V10.7826C50.1675 10.5606 50.2422 10.486 50.4156 10.486C50.6133 10.486 50.7365 10.6333 50.9099 10.9318L54.2973 17.063C54.717 17.8296 55.0397 18.1019 55.9033 18.1019H60.2289C60.6486 18.1019 60.8221 17.88 60.8221 17.5573V16.6675C60.8183 16.2684 60.6952 16.0968 60.2252 15.8244ZM51.0778 8.40805H50.5331C50.3298 8.40805 50.1825 8.26255 50.1825 8.05737V3.33447C50.1825 3.13115 50.328 2.98379 50.5331 2.98379H51.1039C53.027 2.98379 54.2189 3.68141 54.2189 5.61385C54.2189 7.54815 53.2975 8.40805 51.0778 8.40805Z" fill="#252525"/>
<path d="M164.409 3.26536L164.879 3.09189C165.25 2.94453 165.397 2.79531 165.397 2.37562V1.43552C165.397 1.04008 165.175 0.791992 164.754 0.791992H157.634C157.239 0.791992 156.991 1.04008 156.991 1.43552V2.37562C156.991 2.79531 157.138 2.94453 157.509 3.09189L157.979 3.26536C158.498 3.46308 158.671 3.73541 158.671 4.27821V7.39324C158.671 7.56672 158.548 7.68982 158.375 7.68982H153.133C152.96 7.68982 152.837 7.56672 152.837 7.39324V4.27821C152.837 3.73355 153.01 3.46308 153.529 3.26536L153.999 3.09189C154.37 2.94453 154.517 2.79531 154.517 2.37562V1.43552C154.517 1.04008 154.295 0.791992 153.874 0.791992H146.754C146.358 0.791992 146.11 1.04008 146.11 1.43552V2.37562C146.11 2.79531 146.258 2.94453 146.629 3.09189L147.099 3.26536C147.618 3.46308 147.791 3.73541 147.791 4.27821V14.6119C147.791 15.1566 147.618 15.427 147.099 15.6248L146.629 15.7982C146.258 15.9456 146.11 16.0948 146.11 16.5145V17.4546C146.11 17.85 146.358 18.0981 146.754 18.0981H153.874C154.293 18.0981 154.517 17.85 154.517 17.4546V16.5145C154.517 16.0948 154.368 15.9456 153.999 15.7982L153.529 15.6248C153.01 15.427 152.837 15.1547 152.837 14.6119V10.5083C152.837 10.3348 152.96 10.2117 153.133 10.2117H158.375C158.548 10.2117 158.671 10.3348 158.671 10.5083V14.6119C158.671 15.1566 158.498 15.427 157.979 15.6248L157.509 15.7982C157.138 15.9456 156.991 16.0948 156.991 16.5145V17.4546C156.991 17.85 157.239 18.0981 157.634 18.0981H164.754C165.174 18.0981 165.397 17.85 165.397 17.4546V16.5145C165.397 16.0948 165.25 15.9456 164.879 15.7982L164.409 15.6248C163.89 15.427 163.717 15.1547 163.717 14.6119V4.27821C163.717 3.73541 163.89 3.46308 164.409 3.26536Z" fill="#252525"/>
<path d="M139.692 7.12298L136.676 6.23324C135.193 5.78931 134.403 5.26889 134.403 4.4034C134.403 3.56216 135.193 3.02868 136.406 3.01936C138.105 3.0063 139.622 3.78599 141.797 6.13439C142.093 6.45521 142.414 6.58019 142.86 6.33211L143.378 6.03553C143.824 5.78931 143.891 5.42185 143.675 5.04692L141.515 1.31448C141.267 0.874277 141.095 0.5721 140.575 0.5721H140.336C139.743 0.5721 139.668 0.844431 139.075 0.844431C138.308 0.844431 137.486 0.547852 136.083 0.547852C132.201 0.547852 129.68 2.42619 129.68 5.73894C129.68 8.50703 131.683 10.0645 134.154 10.8815L137.368 11.9448C138.95 12.4633 139.791 13.0583 139.791 14.1458C139.791 15.3079 138.902 15.8264 137.443 15.8264C135.218 15.8264 133.289 14.5655 131.263 11.8963C130.942 11.4766 130.62 11.402 130.2 11.5997L129.385 11.9951C129.014 12.1686 128.909 12.5416 129.139 13.008L131.414 17.6805C131.62 18.1002 131.909 18.2737 132.256 18.2737H132.55C133.095 18.2737 133.464 17.9025 133.96 17.9025C134.874 17.9025 135.79 18.3483 137.842 18.3483C141.946 18.3483 144.863 16.4438 144.863 12.786C144.859 9.39677 142.61 7.96236 139.692 7.12298Z" fill="#252525"/>
<path d="M127.174 0.793945H120.055C119.659 0.793945 119.411 1.04203 119.411 1.43747V2.37757C119.411 2.79726 119.558 2.94649 119.93 3.09385L120.4 3.26732C120.918 3.46504 121.092 3.73737 121.092 4.28017V14.6139C121.092 15.1585 120.918 15.429 120.4 15.6267L119.93 15.8002C119.558 15.9475 119.411 16.0968 119.411 16.5165V17.4566C119.411 17.852 119.659 18.1001 120.055 18.1001H127.174C127.57 18.1001 127.818 17.852 127.818 17.4566V16.5165C127.818 16.0968 127.671 15.9475 127.299 15.8002L126.829 15.6267C126.311 15.429 126.137 15.1567 126.137 14.6139V4.28017C126.137 3.7355 126.311 3.46504 126.829 3.26732L127.299 3.09385C127.671 2.94649 127.818 2.79726 127.818 2.37757V1.43747C127.816 1.04016 127.57 0.793945 127.174 0.793945Z" fill="#252525"/>
<path d="M116.436 0.866538C116.271 0.581149 116.115 0.396484 115.744 0.396484H115.251C114.979 0.396484 114.828 0.459905 114.623 0.62032C114.399 0.791926 114.205 0.791926 113.72 0.791926H104.513C104.117 0.791926 103.869 1.04001 103.869 1.43545V2.37555C103.869 2.79524 104.016 2.94447 104.388 3.09183L104.858 3.2653C105.376 3.46302 105.55 3.73535 105.55 4.27815V14.6118C105.55 15.1565 105.376 15.427 104.858 15.6247L104.388 15.7982C104.016 15.9455 103.869 16.0947 103.869 16.5144V17.4545C103.869 17.85 104.117 18.0981 104.513 18.0981H111.979C112.399 18.0981 112.623 17.85 112.623 17.4545V16.5144C112.623 16.0947 112.5 15.897 112.104 15.7982L111.289 15.5762C110.745 15.4288 110.597 15.1565 110.597 14.6118V10.2601C110.597 10.0867 110.72 9.96354 110.894 9.96354H111.313C113.242 9.96354 114.429 10.9521 115.639 12.3623C115.813 12.56 116.035 12.6346 116.331 12.4854L116.949 12.1646C117.221 12.0172 117.322 11.7785 117.197 11.5211L115.281 7.58903C115.171 7.36333 115.035 7.22903 114.751 7.22903H114.447C114.238 7.22903 114.106 7.28499 113.916 7.43794C113.746 7.57038 113.537 7.66551 113.272 7.66551H110.894C110.72 7.66551 110.597 7.5424 110.597 7.36893V4.2054C110.597 3.31566 110.944 2.96872 111.882 2.96872C113.49 2.96872 115.689 4.37887 116.975 5.66406C117.197 5.88603 117.469 5.93639 117.766 5.76292L118.433 5.34323C118.655 5.19587 118.806 4.96084 118.655 4.6997L116.436 0.866538Z" fill="#252525"/>
<path d="M97.1154 16.0222L96.5465 15.8245C96.0279 15.651 95.8545 15.3545 95.8545 14.8117V4.05828C95.8545 3.51362 96.0279 3.24129 96.5465 3.04543L97.0166 2.87196C97.3877 2.7246 97.5351 2.57538 97.5351 2.15569V1.43942C97.5351 1.04398 97.3131 0.795898 96.8916 0.795898H92.1444C91.749 0.795898 91.5009 1.04398 91.5009 1.43942V2.15569C91.5009 2.57538 91.6501 2.7246 92.0194 2.87196L92.4895 3.04543C93.008 3.24315 93.1815 3.51549 93.1815 4.05828V10.1149C93.1815 10.2175 93.0994 10.2995 92.9969 10.2995C92.939 10.2995 92.8887 10.2734 92.8551 10.2324L86.5448 1.38906C86.3881 1.1503 86.2277 0.991753 86.0636 0.913411C85.8994 0.835069 85.6719 0.795898 85.3846 0.795898H80.6748C80.2793 0.795898 80.0312 1.04398 80.0312 1.43942V2.37953C80.0312 2.79922 80.1805 2.94844 80.5498 3.0958L81.0199 3.26927C81.5384 3.46699 81.7119 3.73932 81.7119 4.28212V14.8359C81.7119 15.3806 81.5384 15.651 81.0199 15.8488L80.5498 16.0222C80.1786 16.1696 80.0312 16.3188 80.0312 16.7385V17.4548C80.0312 17.8502 80.2793 18.0983 80.6748 18.0983H85.4219C85.8416 18.0983 86.0655 17.8502 86.0655 17.4548V16.7385C86.0655 16.3188 85.9181 16.1696 85.5469 16.0222L85.0769 15.8488C84.5583 15.651 84.3848 15.3787 84.3848 14.8359V8.02015C84.3848 7.91756 84.4669 7.83549 84.5695 7.83549C84.6273 7.83549 84.6777 7.8616 84.7113 7.90264L91.6986 17.5051C91.8553 17.7439 92.0157 17.9024 92.1799 17.9808C92.344 18.0591 92.5716 18.0983 92.8588 18.0983H96.9904C97.4101 18.0983 97.634 17.8502 97.634 17.4548V16.7385C97.634 16.3188 97.4866 16.1453 97.1154 16.0222Z" fill="#252525"/>
<path d="M28.6611 9.19868L24.0725 1.25069C23.9605 1.05484 23.7498 0.933594 23.5241 0.933594H14.3431C14.1174 0.933594 13.9066 1.05484 13.7947 1.25069L9.85152 8.08137C9.78996 8.18956 9.6538 8.24552 9.53442 8.21195C9.41131 8.17837 9.32551 8.06645 9.32551 7.93961V5.2965C9.32551 2.89215 7.36882 0.935459 4.96447 0.935459H1.23576C0.886951 0.935459 0.601562 1.21898 0.601562 1.56966V5.29836C0.601562 7.03681 1.6368 8.59246 3.24094 9.26024C3.3454 9.30314 3.41441 9.40573 3.41441 9.51951C3.41441 9.63329 3.3454 9.73588 3.24094 9.77878C1.6368 10.441 0.601562 11.9947 0.601562 13.7351V17.4638C0.601562 17.8126 0.885086 18.098 1.23576 18.098H4.96447C7.36882 18.098 9.32551 16.1413 9.32551 13.7369V11.0938C9.32551 10.967 9.41131 10.8551 9.53442 10.8215C9.6538 10.7898 9.78996 10.8439 9.85152 10.952L13.7947 17.7827C13.9085 17.9786 14.1174 18.0998 14.3431 18.0998H23.5222C23.7479 18.0998 23.9587 17.9786 24.0706 17.7827L28.6592 9.83474C28.7152 9.73775 28.7431 9.62956 28.7431 9.51951C28.745 9.40573 28.717 9.29568 28.6611 9.19868ZM19.0026 12.849C17.2119 12.849 15.7551 11.3531 15.7551 9.51578C15.7551 7.67847 17.2119 6.18251 19.0026 6.18251C20.7933 6.18251 22.2501 7.67847 22.2501 9.51578C22.2501 11.3531 20.7933 12.849 19.0026 12.849Z" fill="#252525"/>
</svg>
